<svg width="144" height="144" viewBox="0 0 144 144" fill="none" xmlns="http://www.w3.org/2000/svg">
<path d="M132 30.9V47.1C132 60.6 126.6 66 113.1 66H96.9C83.4 66 78 60.6 78 47.1V30.9C78 17.4 83.4 12 96.9 12H113.1C126.6 12 132 17.4 132 30.9ZM66 96.9V113.1C66 126.6 60.6 132 47.1 132H30.9C17.4 132 12 126.6 12 113.1V96.9C12 83.4 17.4 78 30.9 78H47.1C60.6 78 66 83.4 66 96.9Z" stroke="black" stroke-width="4" stroke-linecap="round" stroke-linejoin="round"/>
<path d="M104.28 66V81.72C104.28 97.86 97.8597 104.28 81.7197 104.28H65.9997V96.9C65.9997 83.4 60.5997 78 47.0997 78H39.7197V62.28C39.7197 46.14 46.1397 39.72 62.2797 39.72H77.9997V47.1C77.9997 60.6 83.3997 66 96.8997 66H104.28Z" stroke="black" stroke-width="4" stroke-linecap="round" stroke-linejoin="round"/>
<rect width="144" height="144" stroke="black"/>
</svg>
