<svg width="157" height="157" viewBox="0 0 157 157" fill="none" xmlns="http://www.w3.org/2000/svg">
<path d="M55.6041 93.2188C55.6041 105.779 65.9399 116.115 78.4999 116.115C91.0599 116.115 101.396 105.779 101.396 93.2188M57.632 13.0833L33.9512 36.8296M99.3678 13.0833L123.049 36.8296" stroke="black" stroke-width="4" stroke-miterlimit="10" stroke-linecap="round" stroke-linejoin="round"/>
<path d="M13.0833 51.3521C13.0833 39.25 19.5595 38.2687 27.6058 38.2687H129.394C137.44 38.2687 143.917 39.25 143.917 51.3521C143.917 65.4167 137.44 64.4354 129.394 64.4354H27.6058C19.5595 64.4354 13.0833 65.4167 13.0833 51.3521Z" stroke="black" stroke-width="4"/>
<path d="M22.8958 65.4167L32.1195 121.937C34.2128 134.628 39.2499 143.917 57.9591 143.917H97.4053C117.75 143.917 120.759 135.02 123.114 122.722L134.104 65.4167" stroke="black" stroke-width="4" stroke-linecap="round"/>
<rect width="157" height="157" stroke="black"/>
</svg>
