<svg width="135" height="135" viewBox="0 0 135 135" fill="none" xmlns="http://www.w3.org/2000/svg">
<path d="M109.688 70.3125C109.688 66.5829 111.169 63.006 113.806 60.3688C116.444 57.7316 120.02 56.25 123.75 56.25V50.625C123.75 28.125 118.125 22.5 95.625 22.5H39.375C16.875 22.5 11.25 28.125 11.25 50.625V53.4375C14.9796 53.4375 18.5565 54.9191 21.1937 57.5563C23.8309 60.1935 25.3125 63.7704 25.3125 67.5C25.3125 71.2296 23.8309 74.8065 21.1937 77.4437C18.5565 80.0809 14.9796 81.5625 11.25 81.5625V84.375C11.25 106.875 16.875 112.5 39.375 112.5H95.625C118.125 112.5 123.75 106.875 123.75 84.375C120.02 84.375 116.444 82.8934 113.806 80.2562C111.169 77.619 109.688 74.0421 109.688 70.3125Z" stroke="black" stroke-width="4" stroke-linecap="round" stroke-linejoin="round"/>
<path d="M56.25 22.5V112.5" stroke="black" stroke-width="4" stroke-linecap="round" stroke-linejoin="round" stroke-dasharray="5 5"/>
<rect width="135" height="135" stroke="black"/>
</svg>
