<svg width="117" height="95" viewBox="0 0 117 95" fill="none" xmlns="http://www.w3.org/2000/svg">
<path d="M100.688 50.3125C100.688 46.5829 102.169 43.006 104.806 40.3688C107.444 37.7316 111.02 36.25 114.75 36.25V30.625C114.75 8.125 109.125 2.5 86.625 2.5H30.375C7.875 2.5 2.25 8.125 2.25 30.625V33.4375C5.97961 33.4375 9.55646 34.9191 12.1937 37.5563C14.8309 40.1935 16.3125 43.7704 16.3125 47.5C16.3125 51.2296 14.8309 54.8065 12.1937 57.4437C9.55646 60.0809 5.97961 61.5625 2.25 61.5625V64.375C2.25 86.875 7.875 92.5 30.375 92.5H86.625C109.125 92.5 114.75 86.875 114.75 64.375C111.02 64.375 107.444 62.8934 104.806 60.2562C102.169 57.619 100.688 54.0421 100.688 50.3125Z" stroke="black" stroke-width="4" stroke-linecap="round" stroke-linejoin="round"/>
</svg>
